<?xml version="1.0" standalone="no"?>
<!DOCTYPE svg PUBLIC "-//W3C//DTD SVG 20010904//EN"
 "http://www.w3.org/TR/2001/REC-SVG-20010904/DTD/svg10.dtd">
<svg version="1.0" xmlns="http://www.w3.org/2000/svg"
 width="2000.000000pt" height="2000.000000pt" viewBox="0 0 2000.000000 2000.000000"
 preserveAspectRatio="xMidYMid meet">
<metadata>
Created by potrace 1.16, written by Peter Selinger 2001-2019
</metadata>
<g transform="translate(0.000000,2000.000000) scale(0.100000,-0.100000)"
 stroke="none">
<path d="M9491 14349 c-42 -21 -94 -56 -115 -78 l-39 -40 12 -818 c7 -450 16
-1088 21 -1418 6 -330 10 -629 10 -664 l0 -63 46 63 c72 99 239 258 342 327
115 76 217 126 347 168 l100 33 -2 103 c-9 567 -46 2026 -52 2038 -4 8 -6 33
-6 56 1 35 -1 40 -17 36 -10 -2 -15 -8 -12 -13 3 -5 9 -7 13 -5 4 3 8 -2 8
-10 0 -10 -9 -6 -28 12 -22 21 -26 30 -17 41 6 7 8 16 4 20 -3 3 -6 1 -6 -5 0
-7 -5 -12 -11 -12 -6 0 -8 7 -5 16 3 8 2 12 -4 9 -6 -3 -10 -1 -10 5 0 7 -5 6
-14 -2 -8 -7 -12 -16 -10 -20 2 -4 0 -9 -5 -13 -6 -3 -8 6 -5 22 4 23 3 26 -7
16 -7 -7 -17 -13 -22 -13 -5 0 -1 7 7 16 9 8 16 20 16 27 0 6 -7 2 -16 -9 -8
-10 -13 -14 -10 -7 4 6 1 15 -5 19 -8 4 -9 3 -5 -4 4 -7 3 -12 -3 -12 -6 0 -9
-6 -7 -12 1 -7 1 -10 -1 -5 -3 4 -9 5 -13 2 -5 -3 -12 0 -16 6 -4 7 -3 9 4 5
6 -3 13 -2 17 4 3 5 -1 10 -10 10 -9 0 -13 5 -10 10 3 6 1 10 -5 10 -6 0 -8 5
-4 12 5 7 11 5 21 -7 7 -11 13 -14 13 -8 0 6 -6 16 -14 22 -17 14 -39 -9 -30
-32 3 -8 1 -18 -5 -22 -7 -4 -8 0 -4 11 4 12 3 15 -5 10 -9 -5 -9 -1 -2 18 6
17 6 27 -2 32 -6 4 -8 3 -5 -2 3 -6 2 -16 -4 -24 -7 -12 -9 -11 -9 5 0 11 -9
26 -21 33 -12 8 -18 9 -15 4 3 -5 -1 -15 -8 -21 -12 -10 -13 -8 -9 8 3 13 1
21 -6 21 -7 0 -9 -4 -6 -10 3 -6 -1 -7 -9 -4 -9 3 -16 10 -16 14 0 5 -10 6
-22 4 -20 -4 -20 -3 -4 4 17 8 17 9 1 25 -17 18 -35 15 -35 -6 0 -7 4 -6 10 3
6 9 10 10 10 3 0 -19 -20 -26 -26 -8 -4 9 -13 14 -21 11 -8 -4 -11 -1 -8 5 4
6 13 8 20 5 13 -5 30 22 20 32 -3 3 -5 0 -5 -6 0 -7 -5 -12 -11 -12 -5 0 -7 5
-4 10 3 6 2 10 -4 10 -5 0 -15 -8 -20 -17 -6 -11 -11 -13 -11 -5 0 7 -3 11 -8
8 -4 -2 -18 2 -32 10 -22 13 -22 14 -3 9 12 -3 25 -1 29 6 5 8 3 9 -6 4 -10
-6 -12 -4 -7 8 3 9 1 19 -5 23 -6 4 -8 3 -4 -4 9 -15 -30 -25 -51 -13 -15 9
-13 10 11 6 16 -2 25 -1 21 3 -19 19 -82 7 -154 -29z"/>
<path d="M8000 14330 c-145 -25 -236 -109 -281 -262 l-22 -74 26 -345 c15
-189 63 -822 108 -1407 44 -585 79 -1066 76 -1069 -7 -6 -51 4 -247 55 -185
49 -286 75 -880 227 -250 65 -529 137 -620 160 -91 23 -466 120 -835 215 -368
94 -850 218 -1070 275 -220 57 -401 102 -403 100 -6 -6 -353 -1128 -349 -1131
2 -2 88 -19 193 -38 595 -110 3822 -697 4104 -747 60 -11 111 -19 149 -23 32
-4 37 -20 45 -147 6 -101 5 -106 -16 -125 -18 -15 -20 -15 -9 -1 15 19 24 17
-89 22 -36 1 -87 5 -115 8 -27 3 -102 9 -165 12 -63 3 -140 8 -170 10 -30 2
-98 7 -150 10 -52 3 -241 14 -420 25 -179 11 -597 35 -930 55 -333 20 -1048
62 -1590 94 -542 32 -986 58 -987 57 -4 -3 148 -1054 156 -1079 8 -24 7 -28
-17 -33 -145 -33 -412 -104 -517 -139 -164 -54 -405 -160 -543 -240 -126 -73
-114 -44 -132 -323 -14 -204 -9 -574 11 -715 l12 -88 64 -69 c66 -72 198 -167
289 -209 41 -18 50 -27 47 -42 -4 -15 -15 -19 -44 -19 -22 0 -39 -4 -39 -10 0
-5 -16 -10 -35 -10 -19 0 -35 -4 -35 -10 0 -5 -13 -10 -30 -10 -16 0 -30 -4
-30 -10 0 -5 -9 -10 -20 -10 -11 0 -20 -4 -20 -10 0 -5 -9 -10 -20 -10 -11 0
-20 -4 -20 -10 0 -5 -9 -10 -20 -10 -19 0 -110 -80 -110 -98 0 -4 -9 -14 -20
-22 -11 -8 -20 -21 -20 -30 0 -9 -9 -22 -20 -30 -12 -8 -20 -26 -20 -42 0 -15
-4 -28 -10 -28 -5 0 -10 -9 -10 -20 0 -11 -7 -20 -15 -20 -11 0 -15 -12 -15
-45 0 -25 -4 -45 -10 -45 -5 0 -10 -22 -10 -50 0 -27 -4 -50 -10 -50 -6 0 -10
-57 -10 -150 0 -93 4 -150 10 -150 6 0 10 -22 10 -50 0 -27 5 -50 10 -50 6 0
10 -18 10 -40 0 -29 4 -40 15 -40 9 0 15 -9 15 -25 0 -14 5 -25 10 -25 6 0 10
-9 10 -20 0 -11 5 -20 10 -20 6 0 10 -9 10 -20 0 -11 5 -20 10 -20 6 0 10 -7
10 -16 0 -9 14 -29 30 -44 17 -15 30 -31 30 -34 0 -15 71 -76 87 -76 10 0 25
-9 33 -20 8 -11 22 -20 32 -20 10 0 18 -4 18 -10 0 -5 14 -10 30 -10 41 0 38
-22 -7 -52 -57 -38 -136 -112 -166 -155 -35 -51 -46 -138 -54 -423 -5 -203 4
-448 24 -608 6 -50 9 -56 52 -83 66 -43 370 -191 478 -233 108 -42 343 -111
535 -156 134 -32 136 -33 127 -56 -5 -15 -5 -24 1 -24 14 0 12 -27 -2 -33 -10
-4 -9 -8 2 -17 11 -9 12 -13 3 -17 -18 -7 -16 -23 2 -23 8 0 15 -7 15 -16 0
-9 -5 -12 -12 -8 -8 5 -9 2 -3 -12 4 -10 7 -31 6 -47 -1 -24 2 -27 24 -23 13
3 29 7 34 10 5 4 12 2 16 -4 6 -10 40 -9 51 2 3 4 -17 51 -45 104 -27 54 -48
101 -45 104 3 3 1242 6 2752 8 1511 2 2753 5 2760 7 9 3 12 67 12 275 l0 270
-800 0 -800 0 0 439 c0 241 3 453 6 470 l7 31 191 0 c127 0 186 4 176 10 -13
9 -13 10 0 10 9 0 22 -6 29 -12 11 -10 13 -10 7 0 -4 6 -3 12 3 12 5 0 12 -6
14 -12 4 -10 6 -10 6 0 1 6 6 12 12 12 5 0 7 -4 4 -10 -3 -6 -1 -10 4 -10 6 0
11 6 11 13 0 8 4 7 10 -3 9 -13 11 -13 20 0 6 10 10 11 10 3 0 -7 9 -13 20
-13 11 0 20 5 20 12 0 8 6 7 16 -4 13 -13 17 -48 21 -181 l6 -166 -94 -3 -94
-3 -3 -27 -3 -28 220 0 221 0 0 30 0 30 -90 0 -90 0 2 168 3 167 30 2 c17 1
76 4 133 6 l102 4 0 -203 0 -204 33 0 34 0 6 143 c4 78 7 169 7 203 l0 60 55
0 55 0 0 -86 c0 -142 42 -238 130 -296 78 -52 221 -42 279 20 21 22 21 23 2
40 -19 17 -21 17 -52 -5 -46 -33 -124 -37 -176 -10 -75 37 -108 109 -108 228
0 45 5 87 10 92 9 8 107 23 145 21 8 0 81 -1 163 -2 l147 -2 0 -203 0 -203 35
0 34 0 3 150 3 150 128 -150 c125 -147 128 -150 167 -150 l40 0 -90 109 c-49
60 -90 113 -90 119 0 6 22 48 50 94 l50 83 90 1 90 0 0 -203 0 -203 176 0 175
0 -3 28 -3 27 -137 3 -138 3 0 94 0 95 115 0 115 0 0 35 0 35 -116 0 -115 0 3
43 3 42 255 0 255 0 3 -172 2 -173 -90 0 -90 0 0 -30 0 -30 221 0 220 0 -3 28
-3 27 -92 3 -93 3 0 117 c0 64 3 140 6 168 l6 51 175 1 c115 0 179 5 188 12 8
6 24 11 37 10 71 -6 119 1 138 20 12 12 19 24 16 28 -5 8 7 9 91 14 23 2 39 6
37 10 -3 5 0 8 5 8 6 0 11 9 11 20 0 18 7 20 60 20 69 0 65 -1 110 21 23 12
39 14 47 7 8 -6 22 -4 43 7 17 9 34 13 39 10 5 -3 20 6 32 20 13 13 27 25 32
25 4 0 7 -238 7 -530 l0 -530 -260 0 -260 0 0 -29 c0 -16 -4 -41 -10 -55 -8
-21 -16 -26 -45 -26 l-36 0 6 -122 c3 -68 8 -178 11 -245 l6 -122 51 -11 c174
-37 385 -134 524 -242 38 -29 48 -32 125 -35 57 -1 78 1 68 8 -11 7 -6 8 15 3
17 -3 46 -7 65 -7 l35 -2 -2 305 c-1 168 -4 518 -8 777 -4 333 -3 473 4 473 6
0 11 5 11 11 0 5 -4 7 -10 4 -5 -3 -10 -1 -10 4 0 6 9 11 20 11 11 0 20 5 20
10 0 6 12 10 28 10 21 0 24 2 12 10 -12 8 -11 10 6 10 45 0 122 45 109 63 -3
4 -2 5 1 2 4 -2 27 10 52 27 25 17 41 25 37 17 -6 -11 -5 -12 5 -2 12 11 16
25 22 71 1 8 9 11 20 9 10 -3 16 -2 13 3 -9 15 23 31 53 25 24 -4 31 -1 35 15
3 14 14 20 32 20 25 0 27 -2 23 -39 -2 -22 -1 -38 3 -35 3 2 9 -52 13 -119 4
-67 16 -246 26 -397 10 -151 31 -469 46 -706 22 -338 31 -431 41 -427 7 3 13
-1 13 -8 0 -11 3 -11 10 1 7 10 10 11 10 2 0 -8 9 -11 28 -7 44 10 472 11 472
2 0 -11 -42 -46 -55 -47 -5 0 -3 5 5 10 11 8 7 9 -15 4 -63 -13 -155 -11 -155
2 0 11 -33 13 -160 11 -159 -2 -160 -2 -160 -24 0 -21 5 -23 48 -24 26 0 58
-2 72 -5 19 -3 21 -2 10 6 -11 7 -7 10 18 10 19 0 32 -5 32 -12 0 -10 3 -9 9
1 7 11 9 11 14 0 4 -12 7 -11 16 1 10 13 11 13 11 0 0 -11 2 -12 8 -3 5 8 18
10 32 7 49 -11 310 -11 310 0 0 6 5 4 10 -4 5 -8 10 -10 10 -4 0 8 19 10 60 7
59 -5 60 -5 60 20 0 25 -2 26 -60 23 -34 -1 -55 1 -48 6 10 6 10 8 -1 8 -21 0
-8 10 20 15 13 3 27 -1 31 -8 6 -9 8 -8 8 3 0 12 2 12 8 2 5 -7 16 -10 26 -6
14 5 16 17 11 78 -3 39 -7 107 -10 151 -3 44 -8 105 -10 135 -5 69 -13 175
-19 260 -3 36 -8 104 -12 153 -3 48 -4 87 0 87 3 0 116 -54 251 -119 216 -105
245 -122 245 -143 0 -13 -11 -167 -25 -342 -14 -175 -25 -337 -25 -360 l0 -41
58 -3 c41 -1 53 1 42 8 -11 8 -7 9 15 4 38 -8 92 -8 128 0 18 4 27 2 27 -6 0
-9 3 -8 10 2 5 8 10 11 10 5 0 -11 545 -12 593 -1 18 4 27 2 27 -6 0 -9 3 -8
10 2 5 8 10 11 10 5 0 -11 545 -12 593 -1 18 4 27 2 27 -6 0 -9 3 -8 10 2 5 8
10 11 10 5 0 -6 83 -10 229 -10 127 0 225 3 218 7 -7 5 2 6 18 2 38 -8 92 -8
128 0 18 4 27 2 27 -6 0 -9 3 -8 10 2 5 8 10 10 10 4 0 -9 103 -13 135 -4 6 1
12 2 15 1 20 -7 309 -7 298 1 -8 5 -2 6 17 2 38 -8 92 -8 128 0 18 4 27 2 27
-6 0 -9 3 -8 10 2 5 8 10 10 10 5 0 -9 103 -12 232 -6 33 1 41 25 59 176 l12
100 -29 60 c-35 72 -160 201 -281 290 -45 33 -153 96 -240 141 l-158 81 -37
474 c-20 261 -38 495 -41 522 l-4 47 558 0 c490 0 559 2 559 15 0 12 19 15
115 15 70 0 115 4 115 10 0 6 25 10 55 10 30 0 55 5 55 10 0 6 18 10 40 10 22
0 40 5 40 10 0 6 16 10 35 10 19 0 35 5 35 10 0 6 8 10 18 10 10 0 24 9 32 20
8 11 21 20 28 20 8 0 27 13 42 30 15 16 33 30 39 30 6 0 11 6 11 13 0 7 9 19
20 27 11 8 20 21 20 30 0 9 9 22 20 30 11 8 20 22 20 32 0 10 5 18 10 18 6 0
10 9 10 20 0 11 5 20 10 20 6 0 10 11 10 25 0 14 5 25 10 25 6 0 10 18 10 40
0 22 5 40 10 40 6 0 10 62 10 165 0 103 -4 165 -10 165 -5 0 -10 20 -10 45 0
25 -4 45 -10 45 -5 0 -10 9 -10 20 0 11 -4 20 -10 20 -5 0 -10 9 -10 20 0 11
-4 20 -10 20 -5 0 -10 9 -10 20 0 11 -4 20 -10 20 -5 0 -10 10 -10 23 0 12 -9
29 -20 37 -11 8 -20 20 -20 28 0 15 -24 42 -37 42 -5 0 -15 9 -23 20 -8 11
-21 20 -30 20 -9 0 -22 9 -30 20 -8 11 -22 20 -32 20 -10 0 -18 5 -18 10 0 6
-9 10 -20 10 -11 0 -20 7 -20 15 0 9 -9 15 -25 15 -14 0 -25 5 -25 10 0 6 -13
10 -30 10 -16 0 -30 5 -30 10 0 6 -13 10 -30 10 -16 0 -30 5 -30 10 0 6 -25
10 -55 10 -30 0 -55 5 -55 10 0 6 -27 10 -60 10 -33 0 -60 4 -60 10 0 6 -32
10 -75 10 -43 0 -75 4 -75 10 0 6 -35 10 -85 10 -50 0 -85 4 -85 10 0 6 -38
10 -95 10 -57 0 -95 4 -95 10 0 6 -38 10 -95 10 -57 0 -95 4 -95 10 0 6 -42
10 -105 10 -87 0 -105 3 -105 15 0 12 -17 15 -95 15 -57 0 -95 4 -95 10 0 6
-23 10 -50 10 l-50 0 5 38 c3 20 23 280 46 577 22 297 42 549 44 561 3 14 27
30 82 54 269 115 545 337 609 489 19 44 18 80 -6 241 -40 271 -88 482 -156
690 -24 74 -48 140 -52 147 -26 40 -202 64 -292 40 -30 -9 -55 -15 -56 -14 0
1 3 51 9 111 6 72 6 111 -1 115 -16 10 -2659 14 -2664 5 -3 -5 26 -391 63
-859 37 -467 68 -866 68 -885 l1 -35 -245 -119 c-135 -66 -248 -117 -251 -114
-4 5 127 1821 142 1955 l5 52 -78 3 -78 3 -3 153 -3 152 90 0 90 0 5 43 c5 35
24 289 51 677 3 41 7 93 10 115 2 22 7 90 10 150 3 61 8 128 10 150 14 125 25
424 16 423 -3 0 -9 1 -13 2 -13 4 -27 7 -38 9 -5 0 -10 5 -10 10 0 5 8 8 18 6
9 -1 11 0 4 2 -7 3 -9 10 -6 16 5 9 4 9 -6 0 -7 -6 -20 -9 -29 -5 -14 5 -14 4
-2 -11 12 -15 12 -17 -3 -11 -21 8 -20 20 2 34 16 11 16 11 0 6 -10 -3 -22 2
-27 12 -6 10 -11 12 -11 5 0 -7 -3 -12 -7 -12 -22 4 -29 -4 -31 -33 -2 -18
-39 -429 -83 -913 -44 -484 -84 -934 -90 -1000 -11 -127 -19 -177 -26 -159 -2
7 -14 10 -26 8 -21 -4 -21 -4 -2 5 11 4 23 7 28 4 4 -2 7 1 7 7 0 7 -6 10 -12
8 -7 -3 -19 1 -26 9 -15 14 -32 9 -32 -10 0 -8 3 -8 9 2 5 8 11 9 15 3 3 -5
-1 -13 -9 -16 -9 -3 -18 1 -22 10 -3 8 -12 13 -19 10 -8 -3 -11 0 -7 10 4 11
9 12 19 3 10 -8 14 -8 14 0 0 6 -5 11 -11 11 -5 0 -7 5 -4 10 11 17 -7 11 -22
-7 -13 -16 -14 -16 -8 7 5 21 4 22 -5 8 -17 -28 -55 -5 -58 36 -1 17 25 477
58 1022 73 1197 71 1156 59 1148 -5 -3 -9 0 -9 6 0 7 -5 6 -14 -2 -8 -7 -12
-16 -10 -20 2 -4 0 -9 -5 -13 -13 -8 -5 33 10 51 6 8 7 14 3 14 -5 0 -15 -9
-22 -20 -7 -11 -17 -20 -23 -20 -6 0 -3 7 5 16 9 8 16 20 16 27 0 6 -6 4 -12
-5 -11 -13 -17 -14 -43 -2 -16 7 -25 13 -20 14 6 0 -1 7 -15 15 l-25 15 24 -4
c14 -1 27 -8 29 -15 6 -19 39 -32 39 -16 0 8 -4 12 -9 9 -5 -3 -17 5 -28 18
-11 13 -19 19 -20 15 0 -4 -9 -3 -21 3 -13 8 -18 17 -14 28 5 13 2 12 -13 -3
-11 -11 -17 -24 -14 -30 3 -5 -3 -3 -14 5 -29 22 -30 24 -11 17 11 -4 16 -3
12 3 -3 6 -15 10 -26 10 -11 0 -17 -4 -14 -10 4 -6 -1 -7 -11 -3 -11 4 -13 8
-6 11 7 2 9 8 6 14 -4 6 0 14 7 19 8 5 10 9 4 9 -15 0 -37 -16 -35 -26 0 -5
-7 -10 -17 -11 -16 -3 -16 -2 -1 5 12 5 15 11 8 22 -6 10 -12 11 -18 5 -5 -6
-23 -246 -41 -535 -41 -678 -220 -3547 -268 -4285 -20 -313 -41 -573 -46 -576
-5 -4 -7 -12 -3 -18 5 -7 1 -9 -8 -5 -19 7 -20 9 -2 27 12 11 11 15 -4 25 -15
9 -17 8 -13 -9 3 -11 0 -19 -6 -19 -7 0 -9 4 -6 10 4 6 -1 7 -12 3 -15 -6 -16
-4 -5 9 10 13 10 18 1 24 -8 4 -9 3 -5 -4 9 -16 -7 -15 -22 0 -7 7 -12 9 -12
5 0 -4 -8 -3 -18 2 -14 7 -19 6 -20 -5 -1 -7 -3 -20 -4 -28 -2 -17 -27 -14
-39 5 -5 8 -9 10 -9 5 0 -6 -5 -5 -12 2 -6 6 -17 8 -27 3 -17 -9 -49 -7 -59 4
-4 3 6 4 21 1 15 -2 27 0 27 5 0 5 -4 9 -10 9 -5 0 -10 5 -10 11 0 8 4 8 13 0
10 -8 17 -7 27 2 7 6 10 8 8 2 -7 -12 17 -37 26 -28 10 10 7 25 -4 18 -5 -3
-10 1 -10 10 0 12 -6 14 -27 9 -25 -6 -26 -5 -15 8 10 13 10 18 1 24 -7 4 -9
3 -6 -3 10 -16 -16 -34 -33 -23 -13 8 -13 10 -1 10 8 0 12 3 8 6 -3 3 -11 3
-17 -1 -8 -5 -6 -13 6 -26 16 -18 16 -19 1 -13 -11 4 -17 1 -17 -7 0 -11 -2
-11 -9 0 -5 8 -8 23 -6 33 2 10 0 18 -6 18 -5 0 -9 -4 -9 -10 0 -5 -11 -10
-25 -10 -14 0 -25 -5 -25 -11 0 -5 -4 -8 -9 -4 -6 3 -8 15 -6 26 3 16 0 19
-18 14 -22 -6 -22 -6 2 13 17 14 19 19 7 19 -8 0 -18 -7 -21 -15 -3 -8 -12
-11 -20 -8 -11 4 -15 -1 -15 -17 0 -17 -2 -19 -9 -8 -5 8 -8 76 -6 150 7 242
28 2135 24 2155 -3 16 -9 12 -31 -21 -41 -62 -182 -206 -261 -267 -156 -119
-348 -213 -518 -252 l-77 -17 -6 -60 c-3 -33 -6 -117 -6 -186 0 -188 17 -171
-176 -171 l-163 0 -3 53 -3 52 -71 3 -72 3 -7 153 -7 154 -42 6 c-67 11 -238
72 -328 117 -45 23 -123 69 -173 103 -89 61 -259 222 -306 290 -13 20 -28 36
-33 36 -5 0 -6 -21 -3 -47 4 -27 7 -219 8 -428 l3 -380 -167 -3 -167 -2 0 187
0 188 -543 0 c-684 0 -802 2 -789 18 21 26 393 739 389 744 -3 2 -32 6 -64 8
-73 3 -73 3 -73 13 0 4 30 7 68 6 189 -2 232 -5 232 -13 0 -4 -36 -59 -80
-122 -44 -62 -80 -116 -80 -119 0 -3 6 -15 14 -26 13 -17 31 -19 230 -24 l215
-5 -119 -225 c-66 -124 -120 -228 -120 -232 0 -12 668 -10 675 2 3 5 12 130
20 277 8 148 16 298 18 334 l4 67 -63 7 -64 7 0 95 0 96 48 -7 c26 -4 55 -8
66 -9 16 -2 29 39 108 337 49 186 87 341 84 343 -10 10 -586 156 -592 150 -3
-3 13 -75 35 -160 23 -86 41 -159 41 -164 0 -13 -279 -407 -295 -415 -7 -4
-71 3 -141 17 -71 14 -130 25 -130 25 -1 0 -4 7 -7 14 -7 16 16 12 42 -8 12
-8 13 -8 7 2 -6 10 0 12 28 7 27 -6 36 -4 36 6 0 19 -208 798 -220 828 -6 13
-9 25 -8 27 2 2 46 -8 98 -21 51 -13 97 -22 101 -19 4 2 10 0 14 -6 4 -6 11
-8 16 -5 5 4 14 3 21 -1 7 -4 21 -9 33 -10 11 -1 101 -23 199 -48 98 -26 181
-45 183 -42 2 2 -44 723 -102 1602 -106 1592 -106 1599 -130 1630 -52 67 -186
130 -300 140 -33 2 -78 6 -100 8 -22 2 -60 0 -85 -4z m-3670 -2266 c206 -53
378 -99 382 -102 9 -9 307 -1136 302 -1141 -5 -5 -744 128 -756 135 -5 3 -8
12 -8 21 0 12 -274 1056 -306 1166 -3 9 -2 17 3 17 4 0 177 -43 383 -96z
m1400 -359 c184 -47 335 -87 336 -88 5 -7 275 -1039 272 -1041 -4 -4 -678 120
-682 125 -2 2 -67 244 -145 537 -78 293 -145 540 -148 549 -5 11 -1 14 13 9
10 -3 170 -44 354 -91z m1385 -355 c154 -39 297 -76 317 -81 29 -7 39 -16 44
-37 20 -80 233 -880 239 -895 6 -15 4 -17 -16 -13 -13 3 -161 31 -328 61 -167
30 -305 56 -306 57 -2 2 -60 219 -130 482 -70 264 -129 486 -132 494 -4 10 -1
13 13 9 10 -3 145 -38 299 -77z m1816 -777 c2 -10 2 -207 -1 -438 l-5 -420
-380 0 c-374 0 -380 0 -380 20 0 11 133 208 295 438 l294 417 87 0 c74 0 87
-2 90 -17z m6785 -370 c-3 -21 -6 -53 -6 -70 l0 -33 -90 0 -90 0 0 70 0 70 96
0 97 0 -7 -37z m-11217 -4 c190 -11 347 -22 349 -24 3 -3 -496 -946 -507 -958
-4 -4 -183 -6 -398 -5 l-391 3 215 405 c118 223 237 449 264 503 50 96 51 97
87 97 20 0 191 -9 381 -21z m1356 -79 c176 -11 323 -20 327 -20 3 0 -82 -165
-189 -367 -107 -202 -213 -403 -235 -445 l-40 -78 -360 0 -360 0 35 63 c19 34
130 243 247 465 179 341 215 402 233 402 12 0 166 -9 342 -20z m1439 -85 c142
-8 264 -15 272 -15 9 0 4 -15 -15 -47 -34 -56 -384 -719 -394 -745 -6 -17 -32
-18 -351 -18 l-345 0 28 48 c34 56 404 759 414 785 6 16 15 18 69 13 35 -4
179 -13 322 -21z m8413 -32 c-4 -32 -9 -134 -13 -226 -8 -193 2 -175 -122
-226 -72 -30 -72 -30 -72 -8 -1 49 22 493 26 505 2 8 30 12 95 12 l92 0 -6
-57z m-4859 -1366 c6 -5 12 -28 12 -53 l0 -44 265 0 265 0 0 -1210 0 -1210
-260 0 -260 0 0 -35 c0 -22 -8 -43 -20 -55 -20 -20 -33 -20 -1695 -20 l-1675
0 0 1315 0 1315 638 2 c1292 6 2717 3 2730 -5z m-3818 -332 l0 -35 -1440 2
c-1545 3 -1475 1 -1449 50 9 17 72 18 1449 18 l1440 0 0 -35z m-3510 -151 l0
-136 -52 7 c-135 17 -359 78 -432 117 -18 10 -15 13 25 34 65 34 213 80 299
93 41 6 86 13 100 15 64 9 60 19 60 -130z m10003 -511 l6 -73 -85 0 c-49 0
-84 4 -84 10 0 6 -39 10 -97 10 l-98 1 175 63 c96 35 176 63 176 62 1 0 4 -34
7 -73z m-6493 -388 l0 -35 -670 0 -670 0 0 35 0 35 670 0 670 0 0 -35z m6494
-1527 c-3 -51 -7 -94 -9 -95 -1 -2 -109 35 -241 82 l-239 84 163 1 c101 0 162
4 162 10 0 6 35 10 86 10 l86 0 -8 -92z m-10004 -533 l0 -135 -24 0 c-105 0
-301 47 -409 97 l-78 37 58 23 c106 44 328 100 446 112 4 1 7 -60 7 -134z
m12089 -79 c5 -11 11 -78 14 -148 l6 -127 -47 15 c-26 8 -68 20 -95 26 -44 11
-47 14 -47 42 1 17 -1 69 -4 115 -3 47 -3 88 -1 91 2 3 40 6 85 6 74 1 82 -1
89 -20z m-8579 -81 l0 -35 -1434 0 c-1290 0 -1436 2 -1450 16 -12 12 -13 20
-6 35 11 19 38 19 1450 19 l1440 0 0 -35z m6665 -1045 c5 0 3 5 -5 10 -11 7
-7 10 18 10 19 0 32 -5 33 -12 0 -9 2 -9 6 1 5 11 7 11 14 0 8 -12 11 -11 19
1 9 13 10 13 10 0 0 -11 2 -12 8 -3 4 7 18 11 29 8 55 -10 157 -15 145 -7 -14
10 94 8 141 -2 18 -4 27 -2 27 6 0 9 3 8 10 -2 5 -8 10 -10 10 -5 0 6 31 10
74 10 41 0 72 -2 71 -5 -2 -3 6 -7 18 -7 17 -2 19 0 7 7 -11 7 -7 10 18 10 19
0 32 -5 33 -12 0 -9 2 -9 6 1 5 11 7 11 14 0 8 -12 11 -11 19 1 9 13 10 13 10
0 0 -11 2 -12 8 -3 4 7 18 11 29 8 55 -10 157 -15 145 -7 -14 10 94 8 141 -2
18 -4 27 -2 27 6 0 9 3 8 10 -2 5 -8 10 -10 10 -3 0 17 95 8 220 -22 8 -2 29
-8 45 -14 l30 -9 -30 -3 c-40 -3 -67 -2 -227 3 -76 3 -136 2 -134 -1 2 -3 -35
-6 -82 -7 -48 -1 -100 -4 -117 -7 -16 -3 -24 -4 -17 -1 25 11 11 24 -20 18
-31 -6 -126 -6 -320 0 -48 2 -86 0 -84 -3 2 -3 -35 -6 -82 -7 -48 -1 -100 -4
-117 -7 -16 -3 -24 -4 -17 -1 29 13 8 22 -35 17 -48 -6 -78 -7 -140 -4 -28 1
-33 5 -33 25 0 26 19 39 35 25 5 -5 14 -9 20 -9z"/>
<path d="M8709 10381 c-20 -20 -29 -39 -29 -61 0 -45 47 -90 95 -90 51 0 85
36 85 90 0 85 -90 121 -151 61z m112 -9 c28 -23 30 -73 4 -102 -24 -26 -79
-26 -105 0 -63 63 31 158 101 102z"/>
<path d="M8375 9938 c-15 -14 -28 -38 -31 -59 -5 -28 -1 -41 21 -67 69 -83
200 1 151 97 -29 55 -95 69 -141 29z m110 -23 c30 -30 31 -54 4 -89 -14 -18
-30 -26 -52 -26 -38 0 -50 7 -66 37 -16 31 -14 47 10 77 27 34 71 35 104 1z"/>
<path d="M8709 9931 c-59 -59 -22 -150 62 -151 71 0 111 61 84 127 -26 61 -97
72 -146 24z m110 -9 c28 -22 31 -75 6 -102 -24 -26 -79 -26 -105 0 -62 62 31
158 99 102z"/>
<path d="M8803 8110 c-84 -17 -145 -68 -185 -155 -19 -42 -23 -66 -23 -155 0
-115 15 -164 71 -229 83 -98 260 -108 343 -17 24 25 24 26 6 46 -18 20 -18 20
-39 1 -87 -82 -218 -60 -278 46 -74 131 -32 343 77 389 56 23 126 18 170 -12
l39 -26 17 23 c21 29 14 40 -44 67 -54 25 -101 32 -154 22z"/>
<path d="M7880 8080 l0 -30 90 0 90 0 0 -275 0 -275 35 0 35 0 0 275 0 275 96
0 95 0 -3 28 -3 27 -217 3 -218 2 0 -30z"/>
<path d="M8417 8103 c-4 -3 -7 -141 -7 -305 l0 -298 35 0 35 0 0 305 0 305
-28 0 c-16 0 -32 -3 -35 -7z"/>
<path d="M9137 8103 c-4 -3 -7 -141 -7 -305 l0 -298 35 0 35 0 0 98 0 97 58
63 57 62 90 -160 90 -160 38 0 c20 0 37 2 37 4 0 2 -47 85 -105 184 -58 100
-105 184 -105 187 0 4 41 56 90 115 50 59 90 111 90 114 0 3 -16 6 -35 6 -32
0 -43 -10 -167 -157 l-133 -157 -3 157 -3 157 -28 0 c-15 0 -31 -3 -34 -7z"/>
<path d="M9647 8103 c-4 -3 -7 -141 -7 -305 l0 -298 180 0 180 0 0 30 0 30
-145 0 -145 0 0 115 0 115 120 0 120 0 0 30 0 30 -120 0 -121 0 3 98 3 97 138
3 137 3 0 29 0 30 -168 0 c-93 0 -172 -3 -175 -7z"/>
<path d="M10060 8080 l0 -30 90 0 90 0 0 -275 0 -275 35 0 35 0 0 275 0 275
96 0 95 0 -3 28 -3 27 -217 3 -218 2 0 -30z"/>
<path d="M10949 13618 c-6 -17 -59 -1515 -59 -1689 l0 -75 97 -33 c265 -90
530 -284 680 -498 l50 -72 7 482 c18 1291 19 1440 5 1435 -8 -3 -20 1 -27 9
-15 14 -32 9 -32 -10 0 -8 3 -8 9 2 5 8 11 9 15 3 3 -5 -1 -13 -9 -16 -9 -3
-18 1 -22 10 -3 8 -12 13 -21 9 -12 -4 -11 0 3 21 15 23 15 26 2 21 -9 -3 -18
-1 -21 6 -3 7 -3 1 0 -13 3 -14 2 -20 -3 -15 -4 6 -15 11 -23 13 -8 2 -21 8
-30 13 -11 8 -10 9 7 4 12 -3 25 -1 29 6 5 8 3 9 -6 4 -10 -6 -12 -4 -7 8 3 9
1 19 -5 23 -6 4 -8 3 -4 -4 9 -15 -30 -25 -51 -13 -15 9 -13 10 10 7 17 -3 25
-1 21 5 -3 6 -8 8 -11 5 -10 -10 -45 16 -39 29 3 9 0 12 -10 8 -8 -3 -14 1
-14 8 0 11 -3 11 -10 -1 -6 -10 -10 -11 -10 -2 0 6 -9 12 -20 12 -11 0 -19 -5
-17 -11 1 -6 -5 -14 -13 -16 -10 -3 -11 -2 -3 4 15 11 0 38 -16 29 -6 -4 -11
-2 -11 4 0 7 -7 10 -15 7 -8 -4 -17 -1 -21 5 -4 6 -3 8 4 4 5 -3 13 0 15 6 4
9 8 10 14 2 4 -6 19 -15 32 -19 21 -6 22 -5 10 8 -8 8 -17 13 -22 10 -4 -2
-10 3 -13 12 -5 13 -9 13 -22 3 -14 -11 -15 -10 -9 7 7 19 6 19 -7 3 -18 -24
-29 -23 -17 0 7 14 6 19 -4 19 -8 0 -12 -4 -9 -8 2 -4 -1 -11 -7 -15 -7 -4 -9
-3 -6 3 4 6 0 19 -8 29 -12 17 -14 17 -20 3 -5 -15 -10 -14 -31 8 -29 29 -30
33 -4 26 11 -3 17 -9 14 -14 -3 -5 3 -6 13 -2 15 6 13 8 -10 18 -15 6 -24 15
-20 21 4 5 2 4 -6 -3 -7 -6 -21 -9 -30 -5 -14 5 -14 4 -2 -11 12 -15 12 -17
-3 -11 -9 3 -17 10 -17 15 -1 5 -3 14 -4 19 -1 6 -3 15 -4 22 -1 7 -6 6 -13
-4 -9 -11 -20 -13 -33 -8 -19 7 -19 7 3 14 12 4 22 12 22 18 0 7 -4 7 -12 1
-22 -17 -57 -22 -51 -7 2 7 12 10 21 7 13 -4 12 -2 -3 10 -23 19 -35 21 -35 6
0 -5 5 -7 12 -3 7 5 8 3 4 -5 -5 -7 -11 -10 -14 -7 -3 3 -12 0 -21 -6 -13 -10
-14 -10 -3 2 14 16 16 46 3 54 -5 4 -7 -2 -4 -13 3 -10 0 -22 -6 -25 -7 -5 -8
-1 -4 11 6 16 4 16 -18 -2 l-24 -20 16 20 c9 11 19 29 23 40 4 14 0 12 -15 -8
-11 -15 -25 -25 -30 -21 -5 3 -7 10 -3 15 3 5 10 7 15 4 5 -4 9 -1 9 4 0 14
-27 14 -35 1 -11 -18 -25 1 -19 26 4 14 2 24 -5 24 -6 0 -11 -1 -12 -2z"/>
<path d="M10319 11774 c-455 -82 -838 -408 -987 -841 -46 -134 -66 -259 -66
-418 0 -165 15 -258 64 -407 171 -511 668 -868 1210 -868 540 0 1035 354 1204
860 48 145 67 260 67 420 0 274 -76 514 -232 733 -196 276 -494 464 -823 522
-109 19 -332 18 -437 -1z m471 -113 c397 -89 728 -386 856 -767 137 -410 38
-857 -261 -1173 -142 -150 -351 -275 -550 -327 -146 -39 -376 -45 -524 -14
-240 49 -444 162 -612 337 -213 223 -322 494 -322 803 -1 456 259 865 675
1060 97 45 233 86 333 99 99 14 305 4 405 -18z"/>
<path d="M10453 11051 c-154 -70 -164 -371 -15 -458 53 -32 139 -36 189 -10
123 64 159 291 65 416 -49 66 -156 89 -239 52z m161 -50 c50 -28 71 -83 71
-186 0 -73 -4 -97 -21 -125 -64 -109 -194 -104 -251 10 -30 58 -32 175 -4 236
39 85 123 112 205 65z"/>
<path d="M9950 10815 l0 -245 25 0 c25 0 25 0 25 99 l0 98 79 5 c94 5 146 29
173 78 37 69 13 158 -52 192 -27 14 -57 18 -142 18 l-108 0 0 -245z m214 191
c66 -28 70 -138 6 -171 -15 -8 -59 -16 -96 -17 l-69 -3 -3 103 -3 102 66 0
c36 0 81 -6 99 -14z"/>
<path d="M10850 10815 l0 -245 25 0 c25 0 25 0 25 99 l0 98 79 5 c94 5 146 29
173 78 37 69 13 158 -52 192 -27 14 -57 18 -142 18 l-108 0 0 -245z m214 191
c66 -28 70 -138 6 -171 -15 -8 -59 -16 -96 -17 l-69 -3 -3 103 -3 102 66 0
c36 0 81 -6 99 -14z"/>
<path d="M9823 10371 c-82 -38 -130 -144 -121 -265 14 -169 159 -271 294 -205
58 28 72 45 51 66 -14 14 -18 13 -49 -8 -24 -18 -46 -24 -83 -24 -91 0 -145
64 -153 180 -5 79 12 138 52 182 29 32 40 37 90 41 49 4 62 1 88 -18 30 -22
32 -22 44 -5 17 22 7 37 -40 59 -45 21 -122 20 -173 -3z"/>
<path d="M10207 10369 c-113 -59 -152 -252 -79 -383 52 -92 164 -130 251 -84
110 57 155 199 109 348 -35 117 -174 175 -281 119z m167 -48 c50 -28 71 -83
71 -186 0 -73 -4 -97 -21 -125 -64 -109 -194 -104 -251 10 -42 82 -25 243 30
289 27 21 90 40 117 34 14 -3 38 -13 54 -22z"/>
<path d="M10600 10138 l0 -248 31 0 31 0 -7 106 -7 105 52 -3 52 -3 58 -100
c52 -90 61 -100 89 -103 17 -2 31 0 31 4 0 3 -27 51 -60 106 -34 55 -59 102
-56 105 2 3 19 12 37 22 59 32 87 121 56 180 -27 54 -59 66 -188 71 l-119 5 0
-247z m227 183 c40 -25 50 -67 28 -114 -21 -44 -51 -57 -130 -57 l-65 0 0 79
c0 44 -3 86 -6 95 -10 25 130 23 173 -3z"/>
<path d="M11010 10135 l0 -245 26 0 25 0 -3 210 c-2 115 0 206 4 202 4 -4 35
-59 71 -122 166 -300 159 -289 195 -290 l32 0 0 245 0 245 -31 0 -32 0 5 -206
5 -206 -41 74 c-23 40 -76 133 -120 206 -72 121 -80 132 -107 132 l-29 0 0
-245z"/>
<path d="M9420 4683 c0 -10 -3 -183 -7 -385 l-6 -368 44 -1 c24 -1 80 -3 124
-4 76 -4 82 -2 117 26 117 93 338 198 506 240 l92 24 0 45 c0 25 3 134 7 243
l6 197 -441 0 c-414 0 -442 -1 -442 -17z"/>
<path d="M4350 4130 c0 -11 29 -69 78 -155 26 -46 31 -50 73 -53 33 -2 40 0
29 8 -11 8 -8 9 15 4 38 -8 92 -8 128 0 18 4 27 2 27 -6 0 -9 3 -8 10 2 5 8
10 10 10 4 0 -9 103 -13 135 -4 6 1 12 1 15 0 3 -1 57 -2 122 -3 l116 -2 -54
107 -55 106 -324 1 c-225 1 -325 -2 -325 -9z"/>
<path d="M5730 4116 c4 -11 25 -50 45 -86 20 -36 41 -74 45 -86 7 -17 16 -20
56 -18 27 1 61 5 77 8 18 4 27 2 27 -6 0 -9 3 -8 10 2 5 8 10 10 10 4 0 -9
103 -13 135 -4 6 1 12 2 15 1 20 -7 309 -7 298 1 -8 5 -2 6 17 2 43 -8 89 -12
97 -7 4 2 -14 46 -40 98 l-47 95 -205 1 c-113 1 -209 1 -214 0 -5 -1 -13 4
-17 11 -6 9 -9 10 -9 1 0 -8 -17 -11 -57 -7 -32 3 -102 6 -155 8 -95 3 -96 3
-88 -18z"/>
<path d="M7164 4103 c20 -52 101 -181 108 -170 5 8 8 8 8 1 0 -9 103 -13 135
-4 6 1 12 2 15 1 20 -7 309 -7 298 1 -8 5 -2 6 17 2 50 -9 95 -12 99 -5 2 3
-17 47 -43 96 l-46 90 -299 3 c-281 2 -298 1 -292 -15z"/>
<path d="M8391 4058 c47 -92 78 -140 90 -133 21 14 59 15 59 3 0 -9 3 -8 10 2
5 8 10 10 10 4 0 -12 118 -13 137 -1 6 4 14 4 16 0 3 -5 78 -8 168 -8 l163 0
-1 33 c-1 17 -2 61 -2 97 l-1 65 -340 0 -340 0 31 -62z"/>
<path d="M13000 3967 c0 -10 -35 -13 -162 -14 -90 0 -180 -4 -200 -7 -26 -4
-38 -2 -38 6 0 6 -6 3 -14 -8 -8 -10 -18 -16 -22 -11 -4 4 -2 7 4 7 7 0 12 3
12 8 0 4 -37 6 -82 6 -46 -1 -113 -2 -150 -3 -54 -1 -68 -4 -68 -16 0 -15 1
-15 78 1 13 3 22 0 22 -8 0 -9 3 -8 10 2 5 8 10 11 10 5 0 -10 541 -12 585 -3
17 4 36 48 21 48 -3 0 -6 -6 -6 -13z"/>
<path d="M10407 3964 c-3 -3 -24 -7 -48 -9 -24 -1 -50 -3 -57 -4 -7 -1 -10 -6
-7 -11 4 -7 -3 -9 -19 -6 -14 3 -28 1 -31 -4 -6 -10 139 -6 188 4 18 4 27 2
27 -6 0 -9 3 -8 10 2 5 8 10 10 10 4 0 -9 103 -13 135 -4 6 1 12 1 15 0 16 -6
238 -4 231 3 -16 16 -140 30 -293 33 -86 1 -158 0 -161 -2z"/>
</g>
</svg>
